<svg width="69" height="69" viewBox="0 0 69 69" fill="none" xmlns="http://www.w3.org/2000/svg">
<g clip-path="url(#clip0_137_811)">
<rect x="14.9333" y="14.9333" width="39.2" height="39.2" rx="19.6" fill="white"/>
<path d="M40.8936 -37.0463L39.9761 -38.8606L58.2376 -38.8606L59.3154 -37.0463C60.3931 -35.2319 62.5487 -31.6032 63.6265 -27.9745C64.7043 -24.3459 64.7043 -20.7172 61.4709 -17.0885C60.4499 -15.9426 59.1064 -14.7967 57.7629 -13.6508C54.852 -11.168 51.9411 -8.68521 52.3098 -6.20243C52.5792 -4.38808 54.6001 -2.57374 56.6209 -0.759396C58.6417 1.05495 60.6626 2.86929 60.932 4.68363C61.2656 6.92996 58.9146 9.17629 56.5635 11.4226C55.1167 12.805 53.6698 14.1873 52.8487 15.5697C50.6931 19.1984 52.8487 22.8271 56.6209 26.4558C57.4914 27.2931 58.448 28.1305 59.4046 28.9679C62.5933 31.7592 65.782 34.5505 65.782 37.3418C65.782 39.2516 64.2893 41.1615 62.7965 43.0713C61.453 44.7902 60.1095 46.509 59.8542 48.2279C59.5078 50.5606 61.1657 52.8933 62.8236 55.226C63.7447 56.522 64.6658 57.818 65.2431 59.1139C66.8598 62.7426 65.782 66.3713 65.2431 68.1856L64.7043 70H45.4811L45.9398 68.1856C46.3986 66.3713 47.3161 62.7426 45.9398 59.1139C45.4483 57.818 44.6642 56.522 43.8801 55.226C42.4688 52.8933 41.0574 50.5606 41.3523 48.2279C41.5696 46.509 42.7133 44.7902 43.857 43.0713C45.1278 41.1615 46.3986 39.2516 46.3986 37.3418C46.3986 34.5505 43.6841 31.7592 40.9696 28.9679C40.1553 28.1305 39.3409 27.2931 38.5999 26.4558C35.3886 22.8271 33.5536 19.1984 35.3886 15.5697C36.0877 14.1873 37.3193 12.805 38.551 11.4226C40.5524 9.17629 42.5538 6.92996 42.2698 4.68363C42.0405 2.86929 40.3202 1.05494 38.5999 -0.759399C36.8796 -2.57374 35.1593 -4.38808 34.9299 -6.20243C34.616 -8.68521 37.094 -11.168 39.572 -13.6508C40.7157 -14.7967 41.8594 -15.9426 42.7286 -17.0885C45.4811 -20.7172 45.4811 -24.3459 44.5636 -27.9745C43.6461 -31.6032 41.8111 -35.2319 40.8936 -37.0463Z" fill="#56F790"/>
<path d="M9.41479 -37.0463L8.4973 -38.8606L26.7588 -38.8606L27.8365 -37.0463C28.9143 -35.2319 31.0699 -31.6032 32.1477 -27.9745C33.2255 -24.3459 33.2255 -20.7172 29.9921 -17.0885C28.9711 -15.9426 27.6276 -14.7967 26.2841 -13.6508C23.3732 -11.168 20.4622 -8.68521 20.831 -6.20243C21.1004 -4.38808 23.1213 -2.57374 25.1421 -0.759396C27.1629 1.05495 29.1838 2.86929 29.4532 4.68363C29.7868 6.92996 27.4357 9.17629 25.0847 11.4226C23.6378 12.805 22.191 14.1873 21.3699 15.5697C19.2143 19.1984 21.3699 22.8271 25.1421 26.4558C26.0126 27.2931 26.9692 28.1305 27.9258 28.9679C31.1145 31.7592 34.3032 34.5505 34.3032 37.3418C34.3032 39.2516 32.8105 41.1615 31.3177 43.0713C29.9742 44.7902 28.6307 46.509 28.3754 48.2279C28.029 50.5606 29.6869 52.8933 31.3448 55.226C32.2659 56.522 33.187 57.818 33.7643 59.1139C35.381 62.7426 34.3032 66.3713 33.7643 68.1856L33.2254 70H14.0023L14.461 68.1856C14.9198 66.3713 15.8373 62.7426 14.461 59.1139C13.9695 57.818 13.1854 56.522 12.4013 55.226C10.99 52.8933 9.57863 50.5606 9.87354 48.2279C10.0908 46.509 11.2345 44.7902 12.3782 43.0713C13.649 41.1615 14.9198 39.2516 14.9198 37.3418C14.9198 34.5505 12.2053 31.7592 9.49079 28.9679C8.67645 28.1305 7.8621 27.2931 7.12105 26.4558C3.90982 22.8271 2.07482 19.1984 3.90982 15.5697C4.60886 14.1873 5.84051 12.805 7.07216 11.4226C9.07359 9.17629 11.075 6.92996 10.791 4.68363C10.5617 2.86929 8.84136 1.05494 7.12105 -0.759399C5.40075 -2.57374 3.68044 -4.38808 3.45107 -6.20243C3.13719 -8.68521 5.61519 -11.168 8.09319 -13.6508C9.23688 -14.7967 10.3806 -15.9426 11.2498 -17.0885C14.0023 -20.7172 14.0023 -24.3459 13.0848 -27.9745C12.1673 -31.6032 10.3323 -35.2319 9.41479 -37.0463Z" fill="#56F790"/>
<path d="M40.8936 -37.0463L39.9761 -38.8606L58.2376 -38.8606L59.3154 -37.0463C60.3931 -35.2319 62.5487 -31.6032 63.6265 -27.9745C64.7043 -24.3459 64.7043 -20.7172 61.4709 -17.0885C60.4499 -15.9426 59.1064 -14.7967 57.7629 -13.6508C54.852 -11.168 51.9411 -8.68521 52.3098 -6.20243C52.5792 -4.38808 54.6001 -2.57374 56.6209 -0.759396C58.6417 1.05495 60.6626 2.86929 60.932 4.68363C61.2656 6.92996 58.9146 9.17629 56.5635 11.4226C55.1167 12.805 53.6698 14.1873 52.8487 15.5697C50.6931 19.1984 52.8487 22.8271 56.6209 26.4558C57.4914 27.2931 58.448 28.1305 59.4046 28.9679C62.5933 31.7592 65.782 34.5505 65.782 37.3418C65.782 39.2516 64.2893 41.1615 62.7965 43.0713C61.453 44.7902 60.1095 46.509 59.8542 48.2279C59.5078 50.5606 61.1657 52.8933 62.8236 55.226C63.7447 56.522 64.6658 57.818 65.2431 59.1139C66.8598 62.7426 65.782 66.3713 65.2431 68.1856L64.7043 70H45.4811L45.9398 68.1856C46.3986 66.3713 47.3161 62.7426 45.9398 59.1139C45.4483 57.818 44.6642 56.522 43.8801 55.226C42.4688 52.8933 41.0574 50.5606 41.3523 48.2279C41.5696 46.509 42.7133 44.7902 43.857 43.0713C45.1278 41.1615 46.3986 39.2516 46.3986 37.3418C46.3986 34.5505 43.6841 31.7592 40.9696 28.9679C40.1553 28.1305 39.3409 27.2931 38.5999 26.4558C35.3886 22.8271 33.5536 19.1984 35.3886 15.5697C36.0877 14.1873 37.3193 12.805 38.551 11.4226C40.5524 9.17629 42.5538 6.92996 42.2698 4.68363C42.0405 2.86929 40.3202 1.05494 38.5999 -0.759399C36.8796 -2.57374 35.1593 -4.38808 34.9299 -6.20243C34.616 -8.68521 37.094 -11.168 39.572 -13.6508C40.7157 -14.7967 41.8594 -15.9426 42.7286 -17.0885C45.4811 -20.7172 45.4811 -24.3459 44.5636 -27.9745C43.6461 -31.6032 41.8111 -35.2319 40.8936 -37.0463Z" stroke="white"/>
<path d="M9.41479 -37.0463L8.4973 -38.8606L26.7588 -38.8606L27.8365 -37.0463C28.9143 -35.2319 31.0699 -31.6032 32.1477 -27.9745C33.2255 -24.3459 33.2255 -20.7172 29.9921 -17.0885C28.9711 -15.9426 27.6276 -14.7967 26.2841 -13.6508C23.3732 -11.168 20.4622 -8.68521 20.831 -6.20243C21.1004 -4.38808 23.1213 -2.57374 25.1421 -0.759396C27.1629 1.05495 29.1838 2.86929 29.4532 4.68363C29.7868 6.92996 27.4357 9.17629 25.0847 11.4226C23.6378 12.805 22.191 14.1873 21.3699 15.5697C19.2143 19.1984 21.3699 22.8271 25.1421 26.4558C26.0126 27.2931 26.9692 28.1305 27.9258 28.9679C31.1145 31.7592 34.3032 34.5505 34.3032 37.3418C34.3032 39.2516 32.8105 41.1615 31.3177 43.0713C29.9742 44.7902 28.6307 46.509 28.3754 48.2279C28.029 50.5606 29.6869 52.8933 31.3448 55.226C32.2659 56.522 33.187 57.818 33.7643 59.1139C35.381 62.7426 34.3032 66.3713 33.7643 68.1856L33.2254 70H14.0023L14.461 68.1856C14.9198 66.3713 15.8373 62.7426 14.461 59.1139C13.9695 57.818 13.1854 56.522 12.4013 55.226C10.99 52.8933 9.57863 50.5606 9.87354 48.2279C10.0908 46.509 11.2345 44.7902 12.3782 43.0713C13.649 41.1615 14.9198 39.2516 14.9198 37.3418C14.9198 34.5505 12.2053 31.7592 9.49079 28.9679C8.67645 28.1305 7.8621 27.2931 7.12105 26.4558C3.90982 22.8271 2.07482 19.1984 3.90982 15.5697C4.60886 14.1873 5.84051 12.805 7.07216 11.4226C9.07359 9.17629 11.075 6.92996 10.791 4.68363C10.5617 2.86929 8.84136 1.05494 7.12105 -0.759399C5.40075 -2.57374 3.68044 -4.38808 3.45107 -6.20243C3.13719 -8.68521 5.61519 -11.168 8.09319 -13.6508C9.23688 -14.7967 10.3806 -15.9426 11.2498 -17.0885C14.0023 -20.7172 14.0023 -24.3459 13.0848 -27.9745C12.1673 -31.6032 10.3323 -35.2319 9.41479 -37.0463Z" stroke="white"/>
</g>
<path fill-rule="evenodd" clip-rule="evenodd" d="M23.4096 39.7162C23.4904 39.5211 23.532 39.312 23.532 39.1009H24.1244C24.1244 39.3898 24.0674 39.6759 23.9569 39.9429C23.8463 40.2098 23.6842 40.4524 23.4799 40.6567C23.2756 40.861 23.0331 41.023 22.7661 41.1336C22.4992 41.2442 22.2131 41.3011 21.9241 41.3011V40.7087C22.1353 40.7087 22.3444 40.6671 22.5394 40.5863C22.7345 40.5055 22.9118 40.3871 23.0611 40.2378C23.2104 40.0885 23.3288 39.9113 23.4096 39.7162Z" fill="black"/>
<path fill-rule="evenodd" clip-rule="evenodd" d="M29.6443 40.544C29.8394 40.6248 30.0484 40.6664 30.2596 40.6664L30.2596 41.2588C29.9706 41.2588 29.6845 41.2019 29.4176 41.0913C29.1506 40.9807 28.9081 40.8187 28.7038 40.6144C28.4995 40.4101 28.3374 40.1675 28.2268 39.9006C28.1163 39.6336 28.0594 39.3475 28.0594 39.0586L28.6517 39.0586C28.6517 39.2697 28.6933 39.4788 28.7741 39.6739C28.8549 39.8689 28.9734 40.0462 29.1227 40.1955C29.272 40.3448 29.4492 40.4632 29.6443 40.544Z" fill="black"/>
<path fill-rule="evenodd" clip-rule="evenodd" d="M27.378 40.5248C27.7908 40.3508 28.1669 40.0978 28.4846 39.78L28.9035 40.1989C28.5317 40.5706 28.0916 40.8669 27.6081 41.0707C27.1246 41.2745 26.6071 41.3819 26.0849 41.3865C25.5628 41.3912 25.0462 41.2929 24.5649 41.0971C24.0835 40.9012 23.647 40.6117 23.2802 40.245L23.6991 39.8261C24.0098 40.1368 24.3798 40.3822 24.7881 40.5484C25.1965 40.7145 25.6353 40.7981 26.0797 40.7942C26.5241 40.7902 26.9653 40.6988 27.378 40.5248Z" fill="black"/>
<path fill-rule="evenodd" clip-rule="evenodd" d="M34.5333 56.6C22.3463 56.6 12.4667 46.7204 12.4667 34.5333C12.4667 22.3463 22.3463 12.4667 34.5333 12.4667C46.7204 12.4667 56.6 22.3463 56.6 34.5333C56.6 46.7204 46.7204 56.6 34.5333 56.6ZM34.5333 13.3121C22.8132 13.3121 13.3121 22.8132 13.3121 34.5333C13.3121 46.2535 22.8132 55.7545 34.5333 55.7545C46.2535 55.7545 55.7545 46.2535 55.7545 34.5333C55.7545 22.8132 46.2535 13.3121 34.5333 13.3121Z" fill="black" fill-opacity="0.05"/>
<path fill-rule="evenodd" clip-rule="evenodd" d="M34.5333 54.8C23.3404 54.8 14.2667 45.7263 14.2667 34.5333C14.2667 23.3404 23.3404 14.2667 34.5333 14.2667C45.7263 14.2667 54.8 23.3404 54.8 34.5333C54.8 45.7263 45.7263 54.8 34.5333 54.8ZM34.5333 14.945C23.715 14.945 14.945 23.715 14.945 34.5333C14.945 45.3516 23.715 54.1216 34.5333 54.1216C45.3516 54.1216 54.1216 45.3516 54.1216 34.5333C54.1216 23.715 45.3516 14.945 34.5333 14.945Z" fill="#56F790"/>
<path d="M24 34.2333C24 35.7613 22.7613 37 21.2333 37C19.7054 37 18.4667 35.7613 18.4667 34.2333C18.4667 32.7053 19.7054 31.4667 21.2333 31.4667C22.7613 31.4667 24 32.7053 24 34.2333Z" fill="black"/>
<path fill-rule="evenodd" clip-rule="evenodd" d="M21.2333 35.9785C22.1971 35.9785 22.9785 35.1971 22.9785 34.2333C22.9785 33.2695 22.1971 32.4882 21.2333 32.4882C20.2695 32.4882 19.4882 33.2695 19.4882 34.2333C19.4882 35.1971 20.2695 35.9785 21.2333 35.9785ZM21.2333 37C22.7613 37 24 35.7613 24 34.2333C24 32.7053 22.7613 31.4667 21.2333 31.4667C19.7054 31.4667 18.4667 32.7053 18.4667 34.2333C18.4667 35.7613 19.7054 37 21.2333 37Z" fill="white"/>
<path d="M20.6667 32.3333C20.6667 33.0329 20.0996 33.6 19.4 33.6C20.0996 33.6 20.6667 34.1671 20.6667 34.8667C20.6667 34.1671 21.2338 33.6 21.9334 33.6C21.2338 33.6 20.6667 33.0329 20.6667 32.3333Z" fill="white"/>
<path d="M33.6 34.2333C33.6 35.7613 32.3613 37 30.8333 37C29.3053 37 28.0667 35.7613 28.0667 34.2333C28.0667 32.7053 29.3053 31.4667 30.8333 31.4667C32.3613 31.4667 33.6 32.7053 33.6 34.2333Z" fill="black"/>
<path fill-rule="evenodd" clip-rule="evenodd" d="M30.8333 35.9785C31.7971 35.9785 32.5784 35.1971 32.5784 34.2333C32.5784 33.2695 31.7971 32.4882 30.8333 32.4882C29.8695 32.4882 29.0882 33.2695 29.0882 34.2333C29.0882 35.1971 29.8695 35.9785 30.8333 35.9785ZM30.8333 37C32.3613 37 33.6 35.7613 33.6 34.2333C33.6 32.7053 32.3613 31.4667 30.8333 31.4667C29.3053 31.4667 28.0667 32.7053 28.0667 34.2333C28.0667 35.7613 29.3053 37 30.8333 37Z" fill="white"/>
<path d="M30.2667 32.3333C30.2667 33.0329 29.6996 33.6 29 33.6C29.6996 33.6 30.2667 34.1671 30.2667 34.8667C30.2667 34.1671 30.8338 33.6 31.5333 33.6C30.8338 33.6 30.2667 33.0329 30.2667 32.3333Z" fill="white"/>
<path fill-rule="evenodd" clip-rule="evenodd" d="M19.2 38.8991L19.6278 38.2667L19.9179 38.4343L19.4902 39.0667L19.2 38.8991ZM20.141 38.8991L20.5688 38.2667L20.859 38.4343L20.4312 39.0667L20.141 38.8991ZM21.0821 38.8991L21.5098 38.2667L21.8 38.4343L21.3723 39.0667L21.0821 38.8991Z" fill="#8E43FF"/>
<path fill-rule="evenodd" clip-rule="evenodd" d="M30.2 38.8991L30.6278 38.2667L30.9179 38.4343L30.4902 39.0667L30.2 38.8991ZM31.141 38.8991L31.5688 38.2667L31.859 38.4343L31.4312 39.0667L31.141 38.8991ZM32.0821 38.8991L32.5098 38.2667L32.8 38.4343L32.3723 39.0667L32.0821 38.8991Z" fill="#8E43FF"/>
<path fill-rule="evenodd" clip-rule="evenodd" d="M51.8666 54.0667H44.5361C43.0618 54.0667 41.8666 52.8728 41.8666 51.4C41.8666 49.9272 43.0618 48.7333 44.5361 48.7333H46.5277C46.5277 45.7878 48.918 43.4 51.8666 43.4C54.8153 43.4 57.2056 45.7878 57.2056 48.7333C57.2056 49.3252 57.1091 49.8945 56.931 50.4265H60.0446C61.0509 50.4265 61.8666 51.2413 61.8666 52.2466C61.8666 53.2518 61.0509 54.0667 60.0446 54.0667H51.8666Z" fill="#9AC2FF"/>
<path fill-rule="evenodd" clip-rule="evenodd" d="M47.2056 49.4106H44.5361C43.4362 49.4106 42.5446 50.3013 42.5446 51.4C42.5446 52.4987 43.4362 53.3894 44.5361 53.3894H60.0446C60.6765 53.3894 61.1887 52.8777 61.1887 52.2466C61.1887 51.6154 60.6765 51.1037 60.0446 51.1037H55.9893L56.288 50.2116C56.4433 49.748 56.5277 49.2512 56.5277 48.7333C56.5277 46.1618 54.4408 44.0773 51.8666 44.0773C49.2924 44.0773 47.2056 46.1618 47.2056 48.7333V49.4106ZM57.1089 49.7492C57.1724 49.4203 57.2056 49.0807 57.2056 48.7333C57.2056 45.7878 54.8153 43.4 51.8666 43.4C48.918 43.4 46.5277 45.7878 46.5277 48.7333H44.5361C43.0618 48.7333 41.8666 49.9272 41.8666 51.4C41.8666 52.8728 43.0618 54.0667 44.5361 54.0667H60.0446C61.0509 54.0667 61.8666 53.2518 61.8666 52.2466C61.8666 51.2413 61.0509 50.4265 60.0446 50.4265H56.931C57.0046 50.2067 57.0642 49.9806 57.1089 49.7492Z" fill="white"/>
<path fill-rule="evenodd" clip-rule="evenodd" d="M17.2 25.2667H9.8695C8.39518 25.2667 7.20001 24.0802 7.20001 22.6167C7.20001 21.1531 8.39518 19.9667 9.8695 19.9667H11.861C11.861 17.0396 14.2514 14.6667 17.2 14.6667C20.1487 14.6667 22.539 17.0396 22.539 19.9667C22.539 20.5548 22.4425 21.1206 22.2643 21.6492H25.378C26.3843 21.6492 27.2 22.459 27.2 23.4579C27.2 24.4569 26.3843 25.2667 25.378 25.2667H17.2Z" fill="#9AC2FF"/>
<path fill-rule="evenodd" clip-rule="evenodd" d="M12.539 20.6397H9.8695C8.76961 20.6397 7.87798 21.5248 7.87798 22.6167C7.87798 23.7085 8.76961 24.5936 9.8695 24.5936H25.378C26.0098 24.5936 26.522 24.0852 26.522 23.4579C26.522 22.8307 26.0098 22.3222 25.378 22.3222H21.3227L21.6214 21.4357C21.7766 20.975 21.861 20.4813 21.861 19.9667C21.861 17.4113 19.7742 15.3397 17.2 15.3397C14.6258 15.3397 12.539 17.4113 12.539 19.9667V20.6397ZM22.4423 20.9762C22.5057 20.6494 22.539 20.3119 22.539 19.9667C22.539 17.0396 20.1487 14.6667 17.2 14.6667C14.2514 14.6667 11.861 17.0396 11.861 19.9667H9.8695C8.39518 19.9667 7.20001 21.1531 7.20001 22.6167C7.20001 24.0802 8.39518 25.2667 9.8695 25.2667H25.378C26.3843 25.2667 27.2 24.4569 27.2 23.4579C27.2 22.459 26.3843 21.6492 25.378 21.6492H22.2643C22.3379 21.4309 22.3976 21.2062 22.4423 20.9762Z" fill="white"/>
<defs>
<clipPath id="clip0_137_811">
<rect x="14.9333" y="14.9333" width="39.2" height="39.2" rx="19.6" fill="white"/>
</clipPath>
</defs>
</svg>
