<svg width="32" height="32" viewBox="0 0 32 32" fill="none" xmlns="http://www.w3.org/2000/svg">
<g clip-path="url(#clip0_236_6128)">
<mask id="mask0_236_6128" style="mask-type:luminance" maskUnits="userSpaceOnUse" x="0" y="0" width="32" height="32">
<path d="M0 0.110352H31.8898V31.8902H0V0.110352Z" fill="white"/>
</mask>
<g mask="url(#mask0_236_6128)">
<path fill-rule="evenodd" clip-rule="evenodd" d="M28.8957 31.8902H2.99416C1.34743 31.8902 0 30.5475 0 28.9064V3.09419C0 1.45314 1.34743 0.110352 2.99416 0.110352H28.8957C30.5425 0.110352 31.8898 1.45314 31.8898 3.09419V28.9064C31.8898 30.5475 30.5425 31.8902 28.8957 31.8902Z" fill="#E82529"/>
</g>
<path fill-rule="evenodd" clip-rule="evenodd" d="M6.88031 6.09448H8.39118C8.50622 6.09448 8.59458 6.19611 8.5782 6.30954L7.87652 11.1603C7.8495 11.347 7.99489 11.5142 8.18412 11.5142H10.8346C10.9099 11.5142 10.9676 11.5808 10.9566 11.655L10.751 13.0482C10.7404 13.1206 10.678 13.1743 10.6045 13.1743H7.60757C6.71611 13.1743 5.86119 12.4457 5.98697 11.5662L6.69307 6.25801C6.70548 6.16444 6.78553 6.09448 6.88031 6.09448Z" fill="#FEFEFE"/>
<path fill-rule="evenodd" clip-rule="evenodd" d="M11.9185 8.0302L11.2269 12.9772C11.2159 13.0556 11.277 13.1257 11.3565 13.1257H12.8186C12.9225 13.1257 13.0107 13.0493 13.0251 12.9467L13.7099 8.08018C13.7245 7.96807 13.6369 7.86865 13.5234 7.86865H12.1047C12.0108 7.86865 11.9314 7.93762 11.9185 8.0302Z" fill="#FEFEFE"/>
<path fill-rule="evenodd" clip-rule="evenodd" d="M14.9342 12.7464C14.4831 12.7302 14.272 12.8711 14.0059 13.0293C14.0701 12.5833 14.5738 9.10753 14.6197 8.89402C14.6683 8.66637 14.7125 8.28657 14.9134 8.09501C15.1488 7.87013 15.5132 7.74146 17.3262 7.73562C19.1769 7.72966 19.5354 9.057 19.4372 9.91945C19.3535 10.6577 19.0781 12.4815 19.0004 12.9911C18.9886 13.0686 18.9221 13.1256 18.8438 13.1256H17.4142C17.3095 13.1256 17.229 13.0336 17.2436 12.9303C17.3159 12.4207 17.5098 11.0623 17.5756 10.6678C17.6572 10.1799 17.7225 9.64293 17.5919 9.43095C17.4612 9.21942 17.0692 9.057 16.3182 9.1872L15.7626 13.1015C15.7626 13.1015 15.4052 12.7634 14.9342 12.7464Z" fill="#FEFEFE"/>
<path fill-rule="evenodd" clip-rule="evenodd" d="M20.9876 5.81348H22.5735C22.6325 5.81348 22.6779 5.86545 22.6698 5.92371L21.683 13.0476C21.6757 13.1004 21.6303 13.1398 21.5767 13.1398H20.011C19.9459 13.1398 19.8959 13.0826 19.9049 13.0183L20.8913 5.89723C20.898 5.84923 20.939 5.81348 20.9876 5.81348Z" fill="#FEFEFE"/>
<path fill-rule="evenodd" clip-rule="evenodd" d="M22.2148 10.1058L24.0071 8.01423C24.0635 7.94836 24.1461 7.9104 24.2332 7.9104H25.8065C25.9201 7.9104 25.9799 8.04447 25.9039 8.12844L24.0714 10.1551L25.7466 13.7455C25.808 13.8773 25.7115 14.028 25.5658 14.028H24.1437C24.0694 14.028 24.002 13.9849 23.971 13.9177L22.2148 10.1058Z" fill="#FEFEFE"/>
<path fill-rule="evenodd" clip-rule="evenodd" d="M14.0163 6.52909C13.8881 7.06812 13.401 7.46922 12.891 7.46922C12.3811 7.46922 11.99 7.03226 12.1183 6.49333C12.2466 5.9543 12.6688 5.51733 13.2739 5.51733C13.7838 5.51733 14.1445 5.99005 14.0163 6.52909Z" fill="#FEFEFE"/>
<path fill-rule="evenodd" clip-rule="evenodd" d="M15.6281 14.3865C15.4999 14.9255 15.0128 15.3266 14.5028 15.3266C13.9929 15.3266 13.6018 14.8897 13.7302 14.3508C13.8584 13.8117 14.2806 13.3748 14.8857 13.3748C15.3956 13.3748 15.7563 13.8475 15.6281 14.3865Z" fill="#FEFEFE"/>
<path fill-rule="evenodd" clip-rule="evenodd" d="M23.2992 20.8282C23.1911 21.3608 22.699 21.757 22.1628 21.7567C21.6266 21.7565 21.1937 21.3244 21.3018 20.7919C21.4099 20.2592 21.8321 19.8275 22.4683 19.8279C23.0045 19.8282 23.4073 20.2955 23.2992 20.8282Z" fill="#FEFEFE"/>
<path fill-rule="evenodd" clip-rule="evenodd" d="M9.80071 18.175H8.8406C8.80495 18.175 8.78048 18.1393 8.79354 18.1062L9.62909 15.9926C9.64503 15.9524 9.7046 15.961 9.70848 16.004L9.89627 18.0708C9.90136 18.1267 9.85718 18.175 9.80071 18.175ZM12.1266 20.8292L11.0552 14.4384C11.0084 14.159 10.7657 13.9543 10.4815 13.9543H9.40642C9.07855 13.9543 8.78092 14.1451 8.64517 14.4425L5.75908 20.8371C5.71723 20.9299 5.78565 21.0346 5.88763 21.0341L7.3872 21.0254C7.48985 21.0248 7.58219 20.9634 7.62228 20.8694L8.12077 19.7008C8.13428 19.6689 8.16561 19.6482 8.20038 19.6482H10.0152C10.0597 19.6482 10.097 19.6819 10.1013 19.726L10.2096 20.8319C10.2221 20.9606 10.3308 21.0588 10.4605 21.0588H11.9314C12.0538 21.0588 12.1468 20.9493 12.1266 20.8292Z" fill="#FEFEFE"/>
<path fill-rule="evenodd" clip-rule="evenodd" d="M11.4113 21.9868L11.7576 23.0531C11.8199 23.2285 11.8668 23.2675 11.9885 23.2419C12.426 23.15 13.4831 22.8387 14.0003 22.1414C14.6745 21.2324 14.767 19.6253 14.886 18.8086C14.984 18.1358 15.1986 16.4797 15.2712 15.9169C15.2843 15.8156 15.2051 15.7261 15.1026 15.7261H13.7582C13.6394 15.7261 13.539 15.8135 13.5231 15.9308C13.4147 16.7258 13.0242 19.5847 12.956 19.981C12.8768 20.4421 12.8609 21.1063 12.1764 21.5027C11.8348 21.7005 11.6596 21.7382 11.5244 21.8011C11.4557 21.8331 11.378 21.8674 11.4113 21.9868Z" fill="#FEFEFE"/>
<path fill-rule="evenodd" clip-rule="evenodd" d="M18.8096 19.5253C18.8096 19.5253 18.1086 19.7629 17.7721 19.5113C17.4355 19.2598 17.4074 18.7428 17.6038 18.0023C17.8001 17.2617 18.2908 17.136 18.5011 17.122C18.7115 17.108 19.1069 17.2072 19.1069 17.2072L18.8096 19.5253ZM20.7507 15.9176C20.2974 15.8046 19.5353 15.5563 18.3101 15.6458C17.1797 15.7283 15.9032 16.2494 15.6642 18.4731C15.4251 20.6969 16.4452 21.1258 17.9116 21.1894C18.9862 21.236 19.8296 20.9413 20.2036 20.7806C20.3338 20.7246 20.4245 20.6047 20.4436 20.4646L20.9854 16.1832C21.0066 16.0132 20.9214 15.96 20.7507 15.9176Z" fill="#FEFEFE"/>
<path fill-rule="evenodd" clip-rule="evenodd" d="M21.7962 19.1189L22.1907 15.019C22.2049 14.8722 22.3286 14.8123 22.4766 14.8123H23.8376C23.9644 14.8123 24.0181 14.9081 23.9831 15.0652L23.1524 19.1705C23.1356 19.25 23.0654 19.3068 22.9839 19.3068H21.9675C21.866 19.3068 21.7865 19.2196 21.7962 19.1189Z" fill="#FEFEFE"/>
<path fill-rule="evenodd" clip-rule="evenodd" d="M5.87027 26.6789C6.13978 26.8273 6.45457 26.8704 6.7542 26.7997C7.94772 26.5179 10.589 25.7593 16.1762 24.9544C23.1956 23.9432 28.3782 23.9474 28.3782 23.9474L28.3918 23.9391C28.3918 23.9391 23.7982 23.3102 16.2592 24.0439C8.72004 24.7777 4.51221 25.931 4.51221 25.931L5.87027 26.6789Z" fill="#FEFEFE"/>
</g>
<defs>
<clipPath id="clip0_236_6128">
<rect width="32" height="32" fill="white"/>
</clipPath>
</defs>
</svg>
