<svg width="32" height="10" viewBox="0 0 32 10" fill="none" xmlns="http://www.w3.org/2000/svg">
<g clip-path="url(#clip0_236_6074)">
<path fill-rule="evenodd" clip-rule="evenodd" d="M8.80604 8.42427C7.82067 9.36091 6.5083 9.87543 5.1489 9.85803C3.78275 9.87866 2.46272 9.36407 1.47098 8.42427C1.00435 7.97177 0.633349 7.43016 0.379996 6.83156C0.126643 6.23297 -0.00390625 5.58959 -0.00390625 4.93959C-0.00390625 4.28959 0.126643 3.64621 0.379996 3.04762C0.633349 2.44903 1.00435 1.90741 1.47098 1.45491C2.46146 0.509534 3.78398 -0.00842946 5.15305 0.0128369C6.51245 -0.00455596 7.82483 0.509956 8.8102 1.4466C9.27735 1.8988 9.64881 2.44032 9.90249 3.03895C10.1562 3.63758 10.2869 4.28111 10.2869 4.93128C10.2869 5.58144 10.1562 6.22497 9.90249 6.82361C9.64881 7.42224 9.27735 7.96375 8.8102 8.41595M5.15305 1.61699C4.71914 1.6128 4.28886 1.69656 3.88821 1.86322C3.48755 2.02988 3.1248 2.27599 2.82187 2.58669C2.51894 2.89739 2.28209 3.26624 2.12563 3.67099C1.96916 4.07574 1.89632 4.50799 1.9115 4.94167C1.9115 5.36626 1.99513 5.7867 2.15761 6.17898C2.3201 6.57125 2.55826 6.92768 2.85849 7.22792C3.15873 7.52815 3.51516 7.76631 3.90743 7.9288C4.29971 8.09128 4.72015 8.17492 5.14474 8.17492C5.56934 8.17492 5.98978 8.09128 6.38205 7.9288C6.77433 7.76631 7.13076 7.52815 7.43099 7.22792C7.73123 6.92768 7.96939 6.57125 8.13187 6.17898C8.29436 5.7867 8.37799 5.36626 8.37799 4.94167C8.3931 4.5094 8.32077 4.07854 8.16532 3.6749C8.00987 3.27127 7.77452 2.90319 7.47337 2.59272C7.17221 2.28226 6.81147 2.0358 6.41276 1.86814C6.01404 1.70047 5.58558 1.61505 5.15305 1.61699ZM20.9453 1.17232L16.9931 9.98686L16.7686 9.9453C15.6382 9.74167 15.4097 9.45907 14.8819 8.31206L11.9188 1.85803H10.805V0.291278H15.0149V1.85803H14.0092L16.3905 7.19829L18.7011 1.85803H17.4544V0.291278H20.9453V1.17232ZM30.5037 8.42427C29.5056 9.34604 28.1969 9.85792 26.8382 9.85792C25.4796 9.85792 24.1709 9.34604 23.1728 8.42427C22.7062 7.97177 22.3352 7.43016 22.0818 6.83156C21.8285 6.23297 21.6979 5.58959 21.6979 4.93959C21.6979 4.28959 21.8285 3.64621 22.0818 3.04762C22.3352 2.44903 22.7062 1.90741 23.1728 1.45491C24.1709 0.533144 25.4796 0.0212596 26.8382 0.0212596C28.1969 0.0212596 29.5056 0.533144 30.5037 1.45491C30.9719 1.90652 31.3443 2.44784 31.5986 3.04655C31.853 3.64526 31.9841 4.28909 31.9841 4.93959C31.9841 5.59009 31.853 6.23392 31.5986 6.83263C31.3443 7.43134 30.9719 7.97266 30.5037 8.42427ZM26.8673 1.61699C26.4332 1.61282 26.0028 1.69656 25.6019 1.86318C25.201 2.02979 24.838 2.27583 24.5348 2.58647C24.2315 2.89711 23.9943 3.26592 23.8373 3.67068C23.6804 4.07545 23.607 4.50779 23.6216 4.94167C23.6216 5.36626 23.7053 5.7867 23.8677 6.17898C24.0302 6.57125 24.2684 6.92768 24.5686 7.22792C24.8689 7.52815 25.2253 7.76631 25.6176 7.9288C26.0098 8.09128 26.4303 8.17492 26.8549 8.17492C27.2795 8.17492 27.6999 8.09128 28.0922 7.9288C28.4845 7.76631 28.8409 7.52815 29.1411 7.22792C29.4414 6.92768 29.6795 6.57125 29.842 6.17898C30.0045 5.7867 30.0881 5.36626 30.0881 4.94167C30.1038 4.50961 30.032 4.07883 29.877 3.67522C29.722 3.2716 29.4871 2.90347 29.1863 2.59294C28.8854 2.28241 28.5249 2.03589 28.1265 1.86818C27.728 1.70047 27.2997 1.61503 26.8673 1.61699Z" fill="#4B2489"/>
</g>
<defs>
<clipPath id="clip0_236_6074">
<rect width="32" height="9.97403" fill="white" transform="translate(0 0.0129395)"/>
</clipPath>
</defs>
</svg>
