<svg width="32" height="30" viewBox="0 0 32 30" fill="none" xmlns="http://www.w3.org/2000/svg">
<path fill-rule="evenodd" clip-rule="evenodd" d="M3.77916 5.90167H28.9578C30.6301 5.90167 32 7.27162 32 8.94389V26.5642C32 28.2365 30.6301 29.6064 28.9578 29.6064H3.04222C1.36994 29.6064 0 28.2365 0 26.5642V4.79627C0 4.00265 0.651904 3.45467 1.43608 3.36019L24.659 0.393555C25.4526 0.393555 26.0951 1.04546 26.0951 1.82963V4.29553H2.32418C2.32418 5.3348 2.63596 5.90167 3.77916 5.90167ZM17.9037 25.2037C15.778 25.61 13.057 24.9108 11.5737 23.3141C10.9123 22.5961 11.9894 21.5096 12.6602 22.2371C13.6522 23.3047 15.4284 23.8149 16.8834 23.7771C18.7257 23.7393 20.3696 22.0576 19.3209 20.1774C17.866 17.5793 14.2947 18.3068 12.4523 16.266C10.9596 14.6221 11.6681 12.0334 13.416 10.8807C15.2394 9.68083 18.3856 9.72807 19.8784 11.4476C20.5208 12.1845 19.4438 13.271 18.8013 12.5246C17.592 11.1358 14.7293 11.3248 13.6428 12.7514C12.0839 14.7921 14.408 15.8881 16.0331 16.3794C18.2628 17.0596 20.7381 18.2879 21.1444 20.8482C21.4656 22.9079 19.8784 24.8258 17.9037 25.2037Z" fill="#EE4E2C"/>
<path fill-rule="evenodd" clip-rule="evenodd" d="M17.9037 25.2036C15.7779 25.6099 13.0569 24.9108 11.5736 23.3141C10.9123 22.596 11.9893 21.5095 12.6601 22.237C13.6521 23.3046 15.4283 23.8148 16.8833 23.777C18.7257 23.7392 20.3696 22.0575 19.3209 20.1774C17.8659 17.5792 14.2946 18.3067 12.4523 16.2659C10.9595 14.622 11.6681 12.0333 13.4159 10.8806C15.2394 9.68076 18.3855 9.728 19.8783 11.4475C20.5208 12.1844 19.4437 13.271 18.8012 12.5246C17.5919 11.1357 14.7292 11.3247 13.6427 12.7513C12.0838 14.7921 14.408 15.888 16.033 16.3793C18.2627 17.0596 20.7381 18.2878 21.1443 20.8482C21.4656 22.9078 19.8783 24.8257 17.9037 25.2036Z" fill="#FEFEFE"/>
</svg>
